<?xml version="1.0" standalone="no"?>
<!DOCTYPE svg PUBLIC "-//W3C//DTD SVG 20010904//EN"
 "http://www.w3.org/TR/2001/REC-SVG-20010904/DTD/svg10.dtd">
<svg version="1.0" xmlns="http://www.w3.org/2000/svg"
 width="920.000000pt" height="920.000000pt" viewBox="0 0 920.000000 920.000000"
 preserveAspectRatio="xMidYMid meet">

<g transform="translate(0.000000,920.000000) scale(0.100000,-0.100000)"
fill="#000000" stroke="none">
<path d="M4780 7835 c0 -5 332 -525 505 -790 39 -60 116 -180 170 -265 55 -85
116 -178 136 -206 85 -116 218 -206 366 -246 77 -21 90 -21 853 -19 426 2 776
4 777 5 1 1 -46 76 -105 166 -59 91 -245 377 -412 635 -344 531 -383 579 -525
652 -147 76 -109 73 -984 73 -430 0 -781 -2 -781 -5z"/>
<path d="M3565 5904 c-170 -36 -269 -86 -368 -188 -69 -70 -147 -185 -600
-886 -674 -1044 -987 -1530 -987 -1536 0 -3 359 -3 798 -2 l797 3 73 27 c181
66 266 144 444 413 69 105 257 393 418 640 261 401 373 574 720 1115 138 215
207 297 330 392 l35 27 -820 -1 c-451 0 -829 -2 -840 -4z"/>
<path d="M1497 2553 c-7 -7 -10 -697 -3 -704 2 -2 43 -3 90 -1 l86 3 0 120 0
119 113 -2 c67 0 129 4 154 12 56 17 111 64 134 114 25 54 25 157 0 211 -22
50 -78 100 -128 115 -42 13 -435 24 -446 13z m362 -158 c52 -26 59 -95 15
-136 -23 -21 -35 -24 -112 -24 l-87 0 -3 88 -3 87 81 0 c52 0 91 -5 109 -15z"/>
<path d="M2190 2200 c0 -336 1 -358 18 -355 9 2 124 4 255 4 l237 1 0 75 0 75
-160 0 -160 0 0 65 0 65 155 0 155 0 0 75 0 75 -155 0 -155 0 0 60 0 60 160 0
161 0 -3 78 -3 77 -252 2 -253 2 0 -359z"/>
<path d="M2830 2206 l0 -355 96 -3 c53 -2 98 1 101 5 3 5 4 65 4 133 -2 106 0
125 14 130 9 4 21 0 28 -8 7 -9 56 -70 111 -137 l98 -121 116 0 116 0 -26 28
c-67 73 -220 253 -217 255 2 2 20 10 39 19 63 28 99 66 115 121 8 28 15 60 15
71 0 45 -23 99 -58 138 -61 67 -78 71 -329 75 l-223 4 0 -355z m395 179 c35
-34 33 -78 -4 -116 -28 -27 -34 -29 -110 -29 l-80 0 2 85 2 85 83 0 c75 0 85
-2 107 -25z"/>
<path d="M3510 2479 l0 -79 105 0 105 0 0 -277 0 -278 90 3 90 3 0 274 0 274
108 3 107 3 0 75 0 75 -302 2 -303 2 0 -80z"/>
<path d="M4321 2538 c-5 -13 -54 -142 -109 -288 -55 -146 -111 -295 -125 -332
l-26 -68 94 0 93 0 24 60 23 61 130 -3 130 -3 21 -58 20 -59 92 -1 c56 -1 92
2 92 8 0 6 -58 165 -128 355 l-127 345 -98 3 c-93 3 -98 2 -106 -20z m175
-410 c5 -16 -3 -18 -71 -18 -61 0 -76 3 -72 14 3 7 15 46 27 87 41 138 37 136
76 29 19 -52 37 -103 40 -112z"/>
<path d="M4965 2538 c-7 -30 -115 -672 -115 -684 0 -5 40 -8 90 -6 49 2 90 8
90 13 0 13 50 372 53 383 2 5 41 -81 87 -193 l83 -202 35 3 34 3 77 185 c42
102 82 193 87 203 8 14 16 -33 34 -187 l24 -206 83 0 c46 0 86 1 91 3 4 1 6
18 4 37 -3 29 -80 534 -97 638 l-6 32 -82 0 c-45 0 -87 -4 -94 -8 -7 -4 -42
-84 -78 -177 -37 -94 -70 -174 -74 -178 -4 -4 -39 74 -77 175 l-69 183 -87 3
c-84 3 -88 2 -93 -20z"/>
<path d="M5847 2554 c-4 -4 -7 -164 -7 -356 l0 -348 95 0 95 0 -2 353 -3 352
-85 3 c-47 1 -89 0 -93 -4z"/>
<path d="M6190 2206 l0 -354 81 -4 c45 -2 85 -1 90 2 5 3 10 101 11 218 l3
212 155 -201 c85 -110 159 -207 163 -215 6 -11 31 -14 103 -14 l94 0 -2 353
-3 352 -90 0 -90 0 -5 -213 -5 -213 -160 208 c-87 114 -164 211 -170 215 -5 4
-47 8 -92 8 l-83 0 0 -354z"/>
<path d="M7251 2543 c-12 -24 -261 -684 -261 -694 0 -4 8 -6 18 -4 9 2 51 4
92 4 l75 1 23 60 24 60 128 0 128 0 21 -62 21 -63 94 3 95 3 -34 92 c-18 51
-62 171 -98 267 -36 96 -78 213 -95 260 l-30 85 -95 3 c-84 2 -97 0 -106 -15z
m141 -323 l37 -110 -79 0 -78 0 36 110 c20 61 39 110 42 110 3 0 22 -50 42
-110z"/>
<path d="M8958 983 c6 -2 18 -2 25 0 6 3 1 5 -13 5 -14 0 -19 -2 -12 -5z"/>
<path d="M8866 971 c-4 -5 3 -7 14 -4 23 6 26 13 6 13 -8 0 -17 -4 -20 -9z"/>
<path d="M8776 941 c-4 -5 3 -7 14 -4 23 6 26 13 6 13 -8 0 -17 -4 -20 -9z"/>
<path d="M8706 905 c-11 -8 -15 -15 -9 -15 6 0 16 7 23 15 16 19 11 19 -14 0z"/>
<path d="M8630 850 c-9 -6 -10 -10 -3 -10 6 0 15 5 18 10 8 12 4 12 -15 0z"/>
<path d="M8560 785 c-7 -9 -8 -15 -2 -15 5 0 12 7 16 15 3 8 4 15 2 15 -2 0
-9 -7 -16 -15z"/>
<path d="M8509 713 c-13 -16 -12 -17 4 -4 16 13 21 21 13 21 -2 0 -10 -8 -17
-17z"/>
<path d="M8465 639 c-4 -6 -5 -12 -2 -15 2 -3 7 2 10 11 7 17 1 20 -8 4z"/>
<path d="M8431 544 c0 -11 3 -14 6 -6 3 7 2 16 -1 19 -3 4 -6 -2 -5 -13z"/>
<path d="M8412 460 c0 -14 2 -19 5 -12 2 6 2 18 0 25 -3 6 -5 1 -5 -13z"/>
<path d="M8412 280 c0 -14 2 -19 5 -12 2 6 2 18 0 25 -3 6 -5 1 -5 -13z"/>
<path d="M8430 196 c0 -8 4 -17 9 -20 5 -4 7 3 4 14 -6 23 -13 26 -13 6z"/>
<path d="M8510 35 c0 -5 5 -17 10 -25 5 -8 10 -11 10 -5 0 6 -5 17 -10 25 -5
8 -10 11 -10 5z"/>
</g>
</svg>
