<?xml version="1.0" standalone="no"?>
<!DOCTYPE svg PUBLIC "-//W3C//DTD SVG 20010904//EN"
 "http://www.w3.org/TR/2001/REC-SVG-20010904/DTD/svg10.dtd">
<svg version="1.0" xmlns="http://www.w3.org/2000/svg"
 width="728.000000pt" height="724.000000pt" viewBox="0 0 728.000000 724.000000"
 preserveAspectRatio="xMidYMid meet">

<g transform="translate(0.000000,724.000000) scale(0.100000,-0.100000)"
fill="#000000" stroke="none">
<path d="M5015 7083 c-210 -27 -478 -133 -685 -270 -137 -92 -300 -251 -403
-394 -118 -166 -221 -397 -263 -594 -17 -79 -30 -308 -20 -349 l6 -26 105 0
c201 0 396 64 594 194 300 198 548 509 671 841 54 144 83 329 78 495 -3 117
-1 114 -83 103z"/>
<path d="M4845 5440 c-100 -9 -162 -20 -306 -56 -95 -23 -162 -46 -484 -159
-174 -61 -330 -105 -371 -105 -45 0 -214 47 -379 106 -395 141 -561 186 -731
200 -96 7 -284 -9 -413 -37 -348 -76 -695 -281 -933 -554 -253 -289 -423 -669
-484 -1085 -21 -148 -30 -517 -15 -676 66 -713 324 -1431 726 -2016 195 -285
404 -530 570 -669 116 -98 217 -158 335 -200 91 -32 101 -34 230 -32 152 1
248 22 440 92 58 22 148 55 200 74 391 143 728 140 1116 -9 424 -164 642 -191
876 -109 248 87 445 269 796 735 97 128 246 377 344 575 69 137 206 481 197
489 -2 2 -49 26 -104 53 -307 152 -571 420 -713 723 -127 272 -170 605 -121
924 60 388 304 752 659 983 49 32 90 62 90 67 0 15 -97 129 -182 214 -276 273
-616 420 -1090 472 -105 11 -118 11 -253 0z"/>
</g>
</svg>
