<?xml version="1.0" standalone="no"?>
<!DOCTYPE svg PUBLIC "-//W3C//DTD SVG 20010904//EN"
 "http://www.w3.org/TR/2001/REC-SVG-20010904/DTD/svg10.dtd">
<svg version="1.0" xmlns="http://www.w3.org/2000/svg"
 width="1200.000000pt" height="1644.000000pt" viewBox="0 0 1200.000000 1644.000000"
 preserveAspectRatio="xMidYMid meet">

<g transform="translate(0.000000,1644.000000) scale(0.100000,-0.100000)"
fill="#000000" stroke="none">
<path d="M5375 14040 c-5 -9 -268 -837 -773 -2440 -55 -173 -153 -486 -218
-695 -64 -209 -121 -387 -126 -395 -4 -8 -49 -148 -99 -310 -50 -162 -141
-457 -203 -655 -62 -198 -112 -361 -111 -363 1 -1 228 96 503 218 275 121 518
226 539 233 21 8 382 166 802 351 420 185 765 335 766 334 2 -2 -17 -104 -41
-228 -78 -400 -213 -1077 -278 -1405 -116 -575 -396 -2001 -395 -2011 0 -8
213 521 767 1906 60 151 179 451 265 665 85 215 213 536 285 715 71 179 215
541 320 805 105 264 234 585 287 714 52 129 93 236 92 238 -2 2 -105 -38 -228
-88 -123 -50 -363 -147 -533 -216 -170 -68 -316 -129 -325 -134 -27 -16 -1496
-607 -1499 -604 -2 2 58 144 133 317 165 379 360 830 693 1608 138 322 334
777 435 1012 101 235 182 430 179 433 -10 10 -1231 5 -1237 -5z"/>
</g>
</svg>
