<?xml version="1.0" standalone="no"?>
<!DOCTYPE svg PUBLIC "-//W3C//DTD SVG 20010904//EN"
 "http://www.w3.org/TR/2001/REC-SVG-20010904/DTD/svg10.dtd">
<svg version="1.0" xmlns="http://www.w3.org/2000/svg"
 width="2500.000000pt" height="2500.000000pt" viewBox="0 0 2500.000000 2500.000000"
 preserveAspectRatio="xMidYMid meet">

<g transform="translate(0.000000,2500.000000) scale(0.100000,-0.100000)"
fill="#000000" stroke="none">
<path d="M11875 23189 c-1535 -59 -2964 -276 -4498 -684 -593 -157 -1442 -437
-2059 -677 l-136 -53 51 -120 c73 -173 348 -715 362 -715 6 0 54 18 106 41
162 70 497 204 720 287 1530 570 3150 912 4814 1017 404 25 758 35 1280 35
997 0 1723 -48 2595 -171 1433 -202 2831 -587 4134 -1139 91 -38 170 -70 175
-70 31 0 428 816 408 837 -2 2 -148 58 -323 124 -1925 726 -3936 1154 -5964
1269 -530 30 -1184 37 -1665 19z"/>
<path d="M10685 21769 c-1464 -112 -3001 -466 -4300 -991 -223 -90 -534 -226
-549 -239 -12 -10 21 -61 121 -186 348 -436 840 -816 1463 -1128 167 -84 348
-165 369 -165 6 0 11 15 11 33 0 17 9 73 19 122 142 672 689 899 2227 922 379
6 392 5 397 -13 3 -10 466 -2584 1027 -5719 562 -3135 1025 -5716 1029 -5735
5 -22 10 -30 14 -20 3 8 463 2589 1022 5735 559 3146 1019 5728 1021 5738 5
16 25 17 242 17 551 0 1085 -41 1412 -107 257 -52 487 -139 624 -237 64 -46
157 -136 202 -196 73 -98 143 -281 169 -442 8 -50 17 -93 20 -96 7 -7 123 43
320 139 663 322 1223 758 1567 1222 32 44 63 88 68 97 8 15 -14 28 -178 100
-1009 445 -2123 774 -3312 979 -509 88 -1150 163 -1520 177 l-155 6 -750 -915
c-412 -504 -754 -915 -759 -913 -5 1 -345 411 -755 911 l-747 910 -105 1 c-57
1 -153 -2 -214 -7z"/>
<path d="M4164 4432 c60 -168 190 -303 344 -358 65 -23 76 -24 399 -24 182 0
338 -3 347 -6 14 -6 16 -88 16 -835 l0 -829 200 0 200 0 0 830 0 830 23 5 c12
3 175 6 362 7 l340 3 80 39 c107 52 216 160 268 265 20 40 37 82 37 92 0 18
-38 19 -1315 19 l-1314 0 13 -38z"/>
<path d="M7800 4439 c41 -142 164 -280 311 -349 l66 -30 824 2 824 3 70 35
c98 49 200 152 248 250 20 41 39 85 42 98 l6 22 -1200 0 -1200 0 9 -31z"/>
<path d="M11370 3850 l0 -620 940 0 940 0 -2 -217 -3 -218 -755 -5 -755 -5
-63 -27 c-96 -41 -179 -95 -255 -167 -62 -59 -138 -155 -153 -196 -6 -13 123
-15 1185 -15 l1191 0 0 630 0 630 -935 0 -935 0 0 210 0 210 739 2 738 3 88
44 c116 59 228 163 279 260 20 38 36 76 36 85 0 15 -101 16 -1140 16 l-1140 0
0 -620z"/>
<path d="M14918 4463 l-108 -4 0 -1039 0 -1040 943 0 942 0 45 26 c142 81 253
216 286 349 l6 25 -911 0 -911 0 0 845 0 845 -92 -2 c-51 -1 -141 -4 -200 -5z"/>
<path d="M17861 4438 c45 -159 204 -322 359 -369 63 -19 91 -19 855 -17 l790
3 79 38 c133 63 269 221 301 350 l7 27 -1200 0 -1201 0 10 -32z"/>
<path d="M7804 3602 c48 -136 167 -272 291 -333 l70 -34 811 -3 c807 -2 813
-2 869 19 82 30 173 96 228 165 45 55 97 150 112 202 l6 22 -1200 0 -1200 0
13 -38z"/>
<path d="M17910 3010 l0 -630 200 0 200 0 0 420 0 420 745 0 745 0 0 -420 0
-420 200 0 200 0 0 630 0 630 -1145 0 -1145 0 0 -630z"/>
<path d="M7805 2749 c55 -156 187 -295 332 -349 54 -20 69 -20 871 -18 l817 3
65 34 c36 18 86 51 113 73 75 63 154 183 182 276 l6 22 -1200 0 -1200 0 14
-41z"/>
</g>
</svg>
